HIERARCHY
ROOT Hips
{
 OFFSET 0.000000 0.000000 0.000000
 CHANNELS 6 Xposition Yposition Zposition Yrotation Xrotation Zrotation
 JOINT Chest
 {
  OFFSET 0.000000 9.585900 0.002600
  CHANNELS 3 Yrotation Xrotation Zrotation
  JOINT Chest2
  {
   OFFSET 0.000000 9.601200 -0.005300
   CHANNELS 3 Yrotation Xrotation Zrotation
   JOINT Chest3
   {
    OFFSET 0.000000 9.561800 0.000000
    CHANNELS 3 Yrotation Xrotation Zrotation
    JOINT Chest4
    {
     OFFSET 0.000000 9.552100 0.000000
     CHANNELS 3 Yrotation Xrotation Zrotation
     JOINT Neck
     {
      OFFSET 0.000000 14.453000 0.000000
      CHANNELS 3 Yrotation Xrotation Zrotation
      JOINT Head
      {
       OFFSET 0.000000 8.936500 -0.011300
       CHANNELS 3 Yrotation Xrotation Zrotation
       End Site
       {
        OFFSET 0.000000 17.073600 -0.006000
       }
      }
     }
     JOINT RightCollar
     {
      OFFSET -2.921100 9.558500 0.000000
      CHANNELS 3 Yrotation Xrotation Zrotation
      JOINT RightShoulder
      {
       OFFSET -13.519700 0.000000 0.000000
       CHANNELS 3 Yrotation Xrotation Zrotation
       JOINT RightElbow
       {
        OFFSET 0.000000 -29.696600 0.000000
        CHANNELS 3 Yrotation Xrotation Zrotation
        JOINT RightWrist
        {
         OFFSET 0.000000 -24.004700 0.000000
         CHANNELS 3 Yrotation Xrotation Zrotation
         End Site
         {
          OFFSET 0.000000 -17.728500 0.000000
         }
        }
       }
      }
     }
     JOINT LeftCollar
     {
      OFFSET 2.921100 9.558500 0.000000
      CHANNELS 3 Yrotation Xrotation Zrotation
      JOINT LeftShoulder
      {
       OFFSET 13.519700 0.000000 0.000000
       CHANNELS 3 Yrotation Xrotation Zrotation
       JOINT LeftElbow
       {
        OFFSET 0.000000 -29.696600 0.000000
        CHANNELS 3 Yrotation Xrotation Zrotation
        JOINT LeftWrist
        {
         OFFSET 0.000000 -24.004700 0.000000
         CHANNELS 3 Yrotation Xrotation Zrotation
         End Site
         {
          OFFSET 0.000000 -17.728500 0.000000
         }
        }
       }
      }
     }
    }
   }
  }
 }
 JOINT RightHip
 {
  OFFSET -7.771700 -0.012900 -0.001300
  CHANNELS 3 Yrotation Xrotation Zrotation
  JOINT RightKnee
  {
   OFFSET 0.000000 -40.869800 0.001200
   CHANNELS 3 Yrotation Xrotation Zrotation
   JOINT RightAnkle
   {
    OFFSET 0.000000 -39.717900 0.002100
    CHANNELS 3 Yrotation Xrotation Zrotation
    JOINT RightToe
    {
     OFFSET 0.000000 -4.965400 11.033500
     CHANNELS 3 Yrotation Xrotation Zrotation
     End Site
     {
      OFFSET 0.000000 -1.423100 5.872300
     }
    }
   }
  }
 }
 JOINT LeftHip
 {
  OFFSET 7.771700 -0.012900 -0.001300
  CHANNELS 3 Yrotation Xrotation Zrotation
  JOINT LeftKnee
  {
   OFFSET 0.000000 -40.869800 0.001200
   CHANNELS 3 Yrotation Xrotation Zrotation
   JOINT LeftAnkle
   {
    OFFSET 0.000000 -39.717900 0.002100
    CHANNELS 3 Yrotation Xrotation Zrotation
    JOINT LeftToe
    {
     OFFSET 0.000000 -4.965400 11.033500
     CHANNELS 3 Yrotation Xrotation Zrotation
     End Site
     {
      OFFSET 0.000000 -1.423100 5.872300
     }
    }
   }
  }
 }
}
MOTION
Frames: 5
Frame Time: 0.008333
0.000000 85.388000 0.000000 0.000000 -5.767877 0.000000 0.000000 11.653817 0.000000 0.000000 -5.885947 0.000000 0.000000 -0.000000 0.000000 0.000000 -0.000000 0.000000 0.000000 12.528835 0.000000 0.000000 0.711642 0.000000 0.000000 -0.000000 0.000000 0.000000 0.000000 -90.000000 0.000000 -2.309062 0.000000 0.000000 2.309062 0.000000 0.000000 -0.000000 0.000000 0.000000 -0.000000 90.000000 0.000000 -2.309062 0.000000 0.000000 2.309062 0.000000 0.000000 8.520406 0.000000 0.000000 1.905762 0.000000 -0.000000 -4.658285 0.000000 0.000000 -0.000000 0.000000 0.000000 8.520406 0.000000 0.000000 1.905762 0.000000 -0.000000 -4.658285 0.000000 0.000000 -0.000000 0.000000
-66.107395 55.578939 -33.448359 -177.068681 -9.953602 -1.118495 0.075818 15.562589 0.787981 0.003209 1.483449 0.088713 0.012102 2.495704 0.145675 0.156053 13.871834 0.822210 0.526756 18.380364 -0.731485 0.697751 -6.357495 -0.888358 3.129799 4.258817 -0.593031 -2.953419 -14.986598 -3.807163 -68.409358 -23.210764 99.732103 -30.851768 0.260453 7.630294 -6.137886 0.910169 1.949843 8.200163 -17.048415 0.736380 56.635945 -22.100675 -101.304695 26.112863 -18.629623 -0.737695 -2.962669 -65.288645 12.462428 -44.743164 85.567072 -47.482894 -12.048893 -18.421881 12.492710 0.030615 -0.065793 0.021441 10.338853 -62.367894 -10.207909 93.504927 70.306388 95.293414 3.080127 -19.839271 -4.919243 0.038738 0.138045 0.017417
-66.107301 55.579054 -33.446629 -177.070295 -9.960786 -1.117253 0.073240 15.566443 0.787278 0.004859 1.486217 0.091397 0.012423 2.496700 0.143650 0.147110 13.882242 0.837589 0.504495 18.375942 -0.751421 0.699073 -6.359853 -0.895250 3.134246 4.238249 -0.608745 -2.917693 -14.992867 -3.802603 -68.429961 -23.352323 99.769751 -30.720264 0.422394 7.679805 -6.131911 0.889078 1.931829 8.196064 -17.064886 0.733195 56.633681 -22.102623 -101.335530 26.112707 -18.638622 -0.730364 -2.954288 -65.283404 12.461284 -44.779793 85.560487 -47.519691 -12.058395 -18.417122 12.492336 0.005399 -0.069560 0.016866 10.363211 -62.359304 -10.223575 93.491542 70.307441 95.289821 3.077029 -19.839204 -4.923505 0.041305 0.139060 0.021036
-66.105789 55.579161 -33.444838 -177.067732 -9.967410 -1.124247 0.071060 15.572014 0.797490 0.005145 1.487251 0.092566 0.012253 2.497593 0.141146 0.143308 13.886187 0.841412 0.488840 18.375872 -0.759407 0.683317 -6.361194 -0.902611 3.132672 4.227176 -0.613717 -2.882576 -15.001737 -3.797370 -68.460325 -23.540605 99.819962 -30.585880 0.571403 7.704979 -6.130032 0.874633 1.924549 8.181419 -17.070791 0.729605 56.645579 -22.109729 -101.363049 26.117149 -18.638552 -0.739282 -2.969923 -65.276612 12.474503 -44.756006 85.560208 -47.501315 -12.014569 -18.418012 12.486719 0.010335 -0.072696 0.014234 10.383375 -62.351200 -10.226191 93.472409 70.315279 95.283870 3.066848 -19.840770 -4.930138 0.045590 0.141538 0.032600
-66.104984 55.579237 -33.443235 -177.060867 -9.973917 -1.126848 0.064469 15.577273 0.804130 0.004857 1.488609 0.089845 0.010726 2.499445 0.144688 0.141993 13.886007 0.837124 0.476059 18.372096 -0.763689 0.676988 -6.360312 -0.912663 3.130742 4.216243 -0.614263 -2.849869 -15.006631 -3.791565 -68.502438 -23.779229 99.880951 -30.450283 0.700816 7.700111 -6.122539 0.856400 1.921152 8.151158 -17.067187 0.726980 56.662199 -22.116247 -101.360564 26.121521 -18.583129 -0.945374 -2.990533 -65.269972 12.485426 -44.775254 85.563062 -47.527619 -11.976268 -18.422576 12.480686 0.021044 -0.074110 0.013274 10.397857 -62.345345 -10.230681 93.464371 70.319851 95.278270 3.055794 -19.839735 -4.922013 0.045899 0.141091 0.033869
